<mxfile host="app.diagrams.net" modified="2023-05-22T15:58:15.378Z" agent="Mozilla/5.0 (Macintosh; Intel Mac OS X 10_15_7) AppleWebKit/537.36 (KHTML, like Gecko) Chrome/113.0.0.0 Safari/537.36" version="21.3.2" etag="0u_NPkAVGPQQ4-T07YK4" type="github">
  <diagram name="Page-1" id="7-vU8kOtYqRAmSUvGjur">
    <mxGraphModel>
      <root>
        <mxCell id="0" />
        <mxCell id="1" parent="0" />
      </root>
    </mxGraphModel>
  </diagram>
</mxfile>
